<svg width="580" height="400" xmlns="http://www.w3.org/2000/svg">
 <!-- Created with Method Draw - http://github.com/duopixel/Method-Draw/ -->
 <g>
  <title>Layer 1</title>
  <path stroke="#00cec9" d="m459.049726,120.484356c0,0 -1.083734,-0.123639 -2.391448,-1.195724c-3.334073,-2.733283 -5.250414,-4.507292 -9.565792,-7.174344c-3.216501,-1.987898 -10.488566,-7.635056 -20.327308,-13.152964c-6.996014,-3.923606 -13.206897,-5.797353 -21.523032,-8.370068c-10.836906,-3.352547 -14.203492,-5.37294 -17.93586,-5.97862c-2.360577,-0.383069 -3.587172,0 -4.782896,0c-9.565792,0 -20.327308,0 -32.284548,0c-11.95724,0 -21.523032,1.195724 -28.697376,1.195724c-4.782896,0 -9.565792,0 -11.95724,0c-2.391448,0 -4.782896,0 -8.370068,0c-9.565792,0 -17.939546,1.033177 -21.523032,1.195724c-13.193651,0.598473 -15.801963,0.142222 -22.718756,2.391448c-2.542665,0.826831 -5.996081,2.037973 -9.565792,2.391448c-6.067347,0.60079 -9.420578,1.785768 -13.152964,2.391448c-2.360577,0.383069 -4.497211,0.497294 -8.370068,2.391448c-3.396728,1.66128 -4.834202,2.044942 -5.97862,2.391448c-4.126266,1.249329 -7.545034,3.990722 -10.761516,5.97862c-2.876919,1.778032 -5.005306,3.219547 -7.174344,4.782896c-2.743637,1.977499 -4.497211,4.084466 -8.370068,5.97862c-3.396728,1.66128 -4.782896,1.195724 -5.97862,2.391448c-1.195724,1.195724 -2.227934,1.371271 -4.782896,3.587172c-4.516569,3.917202 -8.370068,7.174344 -11.95724,10.761516c-2.391448,2.391448 -6.250439,5.721443 -10.761516,10.761516c-5.106203,5.704977 -10.438209,14.622331 -15.544412,20.327308c-7.894395,8.820125 -9.383996,10.856811 -11.95724,15.544412c-3.355092,6.111884 -4.508177,8.402052 -4.782896,9.565792c-0.614301,2.602199 -1.195724,4.782896 -1.195724,7.174344c0,4.782896 0,8.370068 0,11.95724c0,5.97862 -0.589123,11.986341 0,17.93586c0.600781,6.067347 2.384259,12.95628 3.587172,23.91448c0.391416,3.565752 2.302685,8.42141 7.174344,16.740136c3.523386,6.016443 6.838339,13.523891 10.761516,16.740136c3.334073,2.733274 7.440671,4.452857 11.95724,8.370068c6.387406,5.539766 16.285773,7.981443 22.718756,11.95724c1.438459,0.889021 1.839856,1.920865 4.782896,3.587172c4.290163,2.42907 8.340164,2.58733 15.544412,3.587172c10.724953,1.488452 22.732276,1.795447 35.87172,2.391448c13.193633,0.598482 23.91448,1.195724 32.284548,1.195724c9.565792,0 20.340664,0.536083 31.088824,0c12.001941,-0.598592 23.798294,-2.659544 26.305928,-3.587172c4.62387,-1.71046 14.004326,-4.760929 20.327308,-5.97862c2.34828,-0.452246 8.434036,-1.842009 10.761516,-2.391448c5.204399,-1.228584 12.066238,-4.538591 20.327308,-8.370068c7.276627,-3.374888 14.253448,-7.375188 19.131584,-9.565792c5.874074,-2.637851 9.8321,-4.452857 14.348688,-8.370068c2.554962,-2.21591 5.832329,-6.057549 7.174344,-8.370068c4.327858,-7.457675 10.184016,-10.201495 15.544412,-16.740136c5.466547,-6.668128 9.063244,-13.340544 11.95724,-20.327308c3.069553,-7.410584 5.378715,-14.274503 5.97862,-21.523032c0.887597,-10.724843 0,-17.93586 0,-21.523032c0,-10.761516 -0.096554,-16.721635 -1.195724,-22.718756c-1.311253,-7.154128 0.066595,-10.034788 -3.587172,-17.93586c-1.809569,-3.913088 -4.782896,-9.565792 -9.565792,-14.348688c-3.587172,-3.587172 -8.48713,-9.355862 -10.761516,-10.761516c-5.085732,-3.143145 -10.872922,-6.931189 -21.523032,-11.95724c-9.671943,-4.564427 -14.248157,-6.291454 -28.697376,-10.761516c-8.316135,-2.572715 -17.840474,-5.082867 -28.697376,-8.370068c-13.048382,-3.950728 -28.709674,-3.045332 -40.654616,-3.587172c-13.193651,-0.598473 -26.284472,-1.407671 -37.067444,-2.391448c-16.713389,-1.524833 -22.729813,-1.683375 -33.480272,-1.195724c-13.193633,0.598473 -21.232603,2.375803 -28.697376,3.587172c-4.721136,0.766138 -11.861854,2.691419 -22.718756,5.97862c-13.048364,3.950728 -29.050131,7.355164 -40.654616,11.95724c-9.941645,3.942627 -15.810739,8.040038 -20.327308,11.95724c-3.832444,3.323856 -8.158204,9.716462 -10.761516,13.152964c-6.656798,8.787283 -16.133836,20.607118 -19.131584,26.305928c-2.007093,3.815548 -4.180518,5.868364 -4.782896,10.761516c-0.292198,2.373531 0,4.782896 0,5.97862c0,1.195724 -0.824168,3.683124 0,7.174344c0.614292,2.602199 3.696407,10.708441 5.97862,15.544412c5.026051,10.650129 6.592027,16.254665 8.370068,19.131584c1.987898,3.216482 1.01869,7.447403 2.391448,10.761516c0.647124,1.56229 2.981483,3.441958 3.587172,7.174344c0.191539,1.180288 2.391448,5.97862 4.782896,10.761516c3.587172,7.174344 6.151148,10.682769 7.174344,13.152964c1.446998,3.493391 3.587172,9.565792 7.174344,15.544412c3.587172,5.97862 5.636794,8.623167 8.370068,11.95724c2.144169,2.615464 4.604439,5.034061 9.565792,8.370068c5.785877,3.890409 13.19845,7.041956 20.327308,9.565792c9.630545,3.409499 22.859957,8.818939 31.088824,10.761516c7.360118,1.7375 10.381466,5.066063 26.305928,8.370068c10.601943,2.19969 21.482363,1.792966 34.675996,2.391448c11.944943,0.541849 23.93528,0.527034 34.675996,1.195724c9.621623,0.59903 23.91448,1.195724 43.046064,1.195724c10.761516,0 15.544412,0 26.305928,0c10.761516,0 17.794204,-1.423243 21.523032,-3.587172c4.625038,-2.68403 12.175709,-5.506578 20.327308,-9.565792c8.629516,-4.297206 16.896498,-10.608037 25.110204,-19.131584c15.85159,-16.449561 22.517547,-25.273974 32.284548,-37.067444c7.03152,-8.490414 16.454853,-21.692622 21.523032,-29.8931c2.266541,-3.66736 7.86752,-15.731992 10.761516,-22.718756c3.069553,-7.410584 6.075174,-11.938739 7.174344,-17.93586c1.311253,-7.154128 2.536462,-14.456773 1.195724,-22.718756c-1.211378,-7.464773 -7.216819,-18.538794 -10.761516,-23.91448c-1.861787,-2.823451 -5.336787,-8.922472 -16.740136,-21.523032c-6.808051,-7.52282 -16.31513,-15.031245 -27.501652,-21.523032c-9.250112,-5.36805 -17.42189,-9.410224 -26.305928,-13.152964c-8.022167,-3.379641 -15.253983,-5.962975 -22.718756,-7.174344c-2.360577,-0.383069 -8.386233,0.520091 -16.740136,0c-9.621623,-0.599021 -31.093495,-0.897231 -40.654616,-1.195724c-19.159572,-0.598154 -46.633236,-1.195724 -64.569097,-1.195724c-14.348688,0 -26.30945,1.012172 -31.088824,1.195724c-15.578841,0.598304 -24.999711,2.887437 -34.675996,4.782896c-8.297361,1.625346 -22.739337,4.703383 -27.501652,5.97862c-8.408748,2.251671 -20.327308,5.97862 -29.8931,8.370068c-9.565792,2.391448 -19.066832,7.352008 -28.697376,10.761516c-7.128859,2.523827 -11.014615,5.636785 -14.348688,8.370068c-3.923177,3.216245 -11.798378,10.927749 -15.544412,14.348688c-6.896058,6.297584 -13.678693,13.674606 -20.327308,21.523032c-2.186052,2.580551 -3.43913,4.83568 -4.782896,8.370068c-3.236224,8.511907 -5.376242,14.238432 -5.97862,19.131584c-0.438289,3.560297 0,8.370068 0,13.152964c0,4.782896 -0.112318,9.611953 2.391448,15.544412c4.579105,10.849805 7.042157,15.648538 15.544412,26.305928c10.598348,13.284786 17.627168,20.718524 25.110204,26.305928c6.909003,5.158786 16.695745,8.57936 27.501652,10.761516c13.104085,2.646244 25.050068,5.071701 35.87172,7.174344c14.279557,2.774526 20.20844,4.464169 34.675996,5.97862c27.37804,2.865917 39.458892,1.195724 68.156269,1.195724c8.370068,0 23.91448,0 45.437512,0c13.152964,0 26.305928,0 37.067444,0c10.761516,0 21.523032,0 29.8931,0c10.761516,0 25.110204,-1.195724 28.697376,-1.195724c10.761516,0 24.175607,-1.065817 33.480272,-3.587172c8.789382,-2.381723 12.412935,-4.825772 22.718756,-9.565792c6.33433,-2.913391 14.831787,-6.470732 20.327308,-10.761516c5.331459,-4.162665 11.801681,-11.44327 15.544412,-20.327308c3.37965,-8.022167 5.379262,-16.676424 5.97862,-25.110204c0.762873,-10.73444 1.747206,-15.822233 -1.195724,-28.697376c-2.276466,-9.959416 -7.326035,-21.065276 -14.348688,-29.8931c-3.158225,-3.970041 -6.806701,-8.592478 -8.370068,-10.761516c-1.977499,-2.743637 -5.530588,-6.473195 -10.761516,-10.761516c-3.334073,-2.733283 -27.538325,-15.439556 -31.088824,-16.740136c-6.046274,-2.214806 -9.702194,-4.519324 -19.131584,-9.565792c-8.499537,-4.548818 -20.266004,-9.931647 -33.480272,-11.95724c-9.528937,-1.460673 -15.455667,-2.986382 -21.523032,-3.587172c-4.759615,-0.471294 -10.761516,0 -20.327308,0c-13.152964,0 -26.305928,0 -40.654616,0c-16.740136,0 -39.458892,0 -65.764821,0c-23.91448,0 -50.220408,1.195724 -60.981925,1.195724c-5.97862,0 -11.992162,-0.706942 -19.131584,0c-6.067347,0.60079 -13.427209,1.592687 -17.93586,3.587172c-3.9427,1.744132 -6.046347,3.488565 -9.565792,5.97862c-4.880581,3.453087 -8.893763,7.916198 -16.740136,14.348688c-3.334073,2.733283 -6.225899,3.363165 -8.370068,5.97862c-2.733274,3.334064 -6.838339,7.545271 -10.761516,10.761516c-3.334073,2.733283 -4.325313,3.678189 -4.782896,4.782896c-0.647124,1.56229 -2.391448,2.391448 -3.587172,3.587172c-1.195724,1.195724 -3.850488,3.34191 -7.174344,7.174344c-3.917202,4.516569 -5.087027,6.960692 -8.370068,11.95724c-5.293746,8.056705 -10.484817,16.277271 -13.152964,22.718756c-1.886664,4.554812 -1.744324,6.807778 -2.391448,8.370068c-0.915166,2.209415 -0.593346,5.868364 -1.195724,10.761516c-0.584388,4.747062 0,7.174344 0,13.152964c0,5.97862 -1.130607,10.869401 0,16.740136c1.217691,6.322982 5.610995,12.17965 7.174344,14.348688c0.988749,1.371809 0.673699,2.8008 3.587172,5.97862c5.174057,5.643509 7.174344,5.97862 10.761516,9.565792c2.391448,2.391448 5.97862,4.782896 13.152964,9.565792c7.174344,4.782896 10.564029,6.802852 23.91448,9.565792c8.27959,1.713507 15.470227,1.791543 22.718756,2.391448c8.341551,0.690366 15.421256,0.644169 26.305928,2.391448c11.864974,1.904645 31.025112,6.574968 39.458892,7.174344c3.578141,0.254285 8.370068,0 15.544412,0c4.782896,0 14.348688,0 26.305928,0c14.348688,0 28.718176,-0.66869 39.458892,0c9.621623,0.599011 21.495044,1.793294 40.654616,2.391448c4.780561,0.149247 14.348688,0 21.523032,-1.195724c7.174344,-1.195724 15.625056,-1.076564 26.305928,-2.391448c9.786305,-1.204755 19.814469,-7.986807 25.110204,-10.761516c6.698653,-3.509775 14.53625,-5.476053 21.523032,-8.370068c2.470195,-1.023196 4.508633,-2.701563 7.174344,-4.782896c5.495521,-4.290784 17.93586,-8.370068 21.523032,-10.761516c7.174344,-4.782896 14.444002,-9.383996 19.131584,-11.95724c6.111884,-3.355092 7.668901,-4.334883 11.95724,-9.565792c2.733292,-3.334073 5.046212,-5.733348 8.370068,-9.565792c3.917193,-4.516569 4.782896,-7.174344 5.97862,-9.565792l0,-1.195724l1.195724,0" id="svg_2" stroke-width="1.5" fill="none"/>
  <path transform="rotate(16.558467864990234 285.8928833007816,197.93746948242188) " d="m455.5,104.4375c0,0 -2.080261,0.689262 -5,0c-2.176239,-0.513741 -9.096619,-1.533737 -15,-3c-3.069031,-0.762276 -8.946716,-1.498741 -16,-2c-3.989929,-0.283554 -5,0 -6,0c-2,0 -5,0 -9,0c-5,0 -12.968811,-1.499565 -25,-2c-15.986176,-0.66494 -31,0 -33,0c-6,0 -13,0 -20,0c-9,0 -13,0 -25,0c-9,0 -18,0 -28,0c-13,0 -25.098969,-0.723274 -35,1c-8.124069,1.413994 -23,5 -33,7c-10,2 -12.757111,3.986916 -19,5c-1.974182,0.320366 -2.852737,0.173096 -4,1c-1.813995,1.307449 -6.831284,4.220535 -12,8c-5.820938,4.256371 -9.776276,7.296936 -15,11c-7.69632,5.455872 -12.467163,6.085663 -19,10c-5.492622,3.291061 -8,7 -11,10c-2,2 -9.519287,6.558197 -12,10c-2.614906,3.627991 -3.352882,5.742523 -4,7c-2.783363,5.4086 -2.311768,7.904938 -4,14c-2.461006,8.88501 -3,18 -3,25c0,2 0.065407,5.978989 1,9c2.151596,6.954895 3.691246,14.071793 5,19c0.811653,3.056335 2.053352,7.968369 5,13c4.074226,6.957062 6.735786,12.235413 13,19c0.960884,1.037628 1.752228,2.283173 4,4c6.407127,4.893738 13.920227,7.250854 23,10c10.912521,3.304047 20.957962,7.130829 27,9c6.954895,2.151581 11.180756,2.266174 41,10c7.046951,1.827667 17.039444,2.577301 30,4c7.028839,0.771576 13.004593,0.834106 16,1c9.041534,0.500763 19,1 30,1c15,0 28.111725,-0.461182 39,-3c7.089935,-1.653168 15.95578,-3.260681 27,-5c14.948517,-2.354187 29.040894,-3.786896 40,-6c9.037109,-1.824951 21.114075,-5.779572 29,-10c7.108276,-3.80423 10.354492,-5.519073 20,-13c7.285187,-5.650299 14.917236,-10.917236 21,-17c6.082764,-6.082764 12.096466,-14.334335 16,-22c4.304901,-8.453857 5.307007,-19.342834 12,-32c2.725739,-5.154648 4,-8 6,-14c1,-3 1,-5 1,-8c0,-2 0,-5 0,-7c0,-2 -2.620422,-6.437973 -8,-13c-4.571747,-5.576645 -8,-9 -14,-14c-6,-5 -15.771729,-12.3853 -24,-17c-7.801147,-4.37516 -13.957977,-7.130814 -20,-9c-6.954895,-2.151596 -13.958313,-3.142609 -24,-6c-25.897766,-7.369286 -35.997955,-9.03112 -51,-10c-15.997894,-1.033195 -52.01413,-4.87677 -70,-7c-8.006653,-0.945183 -33.971207,-2.499634 -47,-3c-12.990417,-0.498894 -24,0 -36,0c-10,0 -17.096863,0.60025 -22,2c-8.215775,2.345436 -16.559296,6.048332 -29,14c-4.212952,2.692772 -10.228851,7.729622 -15,12c-4.215088,3.772675 -7.610649,9.159279 -9,12c-4.752312,9.716766 -9.357239,16.254059 -12,22c-2.436501,5.297501 -4.607033,10.17572 -7,15c-2.591057,5.223633 -3.163826,8.974991 -4,15c-1.244812,8.969421 -2.144295,13.934143 -3,16c-2.420303,5.843124 -3,15 -3,21c0,6 -0.493462,9.878555 -1,13c-0.800911,4.93544 0.360794,11.215118 3,18c2.431877,6.251877 8.917534,15.056641 11,18c2.887863,4.081696 5.836609,10.224274 14,16c5.886703,4.164948 8.957779,5.092346 22,11c8.971405,4.063721 15.822693,6.64325 22,8c8.844559,1.942596 18.958466,3.499237 28,4c6.989288,0.387115 17,0 35,0c13,0 20,0 32,0c14,0 24.010376,0.498718 36,0c12.031189,-0.500427 20,-3 27,-5c7,-2 17.10614,-3.402191 30,-6c12.125671,-2.443024 19.761078,-7.415894 23,-9c2.840729,-1.389343 11.397827,-4.064728 17,-7c4.428894,-2.320526 12,-6 22,-11c8,-4 14.215118,-5.360779 21,-8c6.251892,-2.431885 7.881531,-4.190277 11,-6c3.867981,-2.24469 9.42334,-3.428238 15,-8c1.093658,-0.896591 1.877655,-2.06601 3,-4c1.809723,-3.118484 3.065399,-5.978989 4,-9c2.151581,-6.954895 2.929871,-15.009079 4,-23c0.938568,-7.008499 2.498749,-13.946716 3,-21c0.354431,-4.987427 0.281433,-20.029221 -1,-31c-0.820374,-7.023315 -2,-16 -3,-18c-3,-6 -10.222717,-15.723991 -14,-19c-1.068359,-0.926598 -1.647491,-1.972511 -6,-3c-5.839508,-1.378517 -15.981262,-3.499847 -36,-4c-21.993134,-0.549484 -41,0 -58,0c-16,0 -29.982971,0.49987 -52,1c-16.995605,0.386063 -22.893433,0.997475 -37,2c-7.979889,0.567116 -15.003113,0.738319 -26,1c-21.017853,0.500145 -45.089539,0.779213 -67,3c-19.137329,1.939713 -53.003845,8.954895 -65,10c-22.007362,1.917282 -26.985237,2.109459 -34,3c-8.983284,1.140457 -15.186005,1.692551 -17,3c-1.14727,0.826904 -1.692547,1.186005 -3,3c-0.826904,1.147263 -3.741066,5.726959 -6,13c-4.5373,14.608658 -3.499031,19.953323 -4,28c-0.24855,3.992264 -0.320366,6.025818 0,8c0.506542,3.121445 3.672615,11.708481 6,18c1.430496,3.867004 2.746395,8.161194 6,13c2.789948,4.149246 5.053352,8.968369 8,14c4.074226,6.957062 11,17 13,19c2,2 3.437973,4.620422 10,10c8.364975,6.857635 17.891708,11.19577 25,15c5.914452,3.165314 13.649323,6.008118 21,8c7.781616,2.108643 13.851593,2.995117 24,4c4.975662,0.492676 14.962601,0.49939 25,1c15.980133,0.797028 25,0 30,0c15,0 27,0 40,0c15,0 25,0 32,0c5,0 10,0 14,0c7,0 10,0 19,0c8,0 23.004608,0.04953 34,-1c10.004395,-0.954956 21.08905,-2.597229 31,-5c14.150299,-3.430542 24.903259,-6.380402 36,-9c9.925232,-2.343018 19,-4 25,-6c3,-1 3,-2 3,-6l1,-1l0,-3" id="svg_3" fill-opacity="null" stroke-width="1.5" stroke="#05e0a2" fill="none"/>
 </g>
</svg>